<?xml version="1.0" encoding="UTF-8"?>
<!DOCTYPE svg PUBLIC "-//W3C//DTD SVG 1.1//EN" "http://www.w3.org/Graphics/SVG/1.1/DTD/svg11.dtd">
<!-- Creator: CorelDRAW 2018 (64-Bit) -->
<svg xmlns="http://www.w3.org/2000/svg" xml:space="preserve" width="256px" height="256px" version="1.1" style="shape-rendering:geometricPrecision; text-rendering:geometricPrecision; image-rendering:optimizeQuality; fill-rule:evenodd; clip-rule:evenodd"
viewBox="0 0 256 256"
 xmlns:xlink="http://www.w3.org/1999/xlink">
 <defs>
  <style type="text/css">
   <![CDATA[
    .fil0 {fill:black}
   ]]>
  </style>
 </defs>
 <g id="图层_x0020_1">
  <metadata id="CorelCorpID_0Corel-Layer"/>
  <path class="fil0" d="M62.239 5.018c55.787,0 111.575,0 167.362,0 0,81.988 0,163.974 0,245.962 -55.785,0.005 -111.575,0 -167.362,0 -19.794,0 -35.84,-16.047 -35.84,-35.841l0 -174.281c0,-19.793 16.046,-35.84 35.84,-35.84zm55.634 14.336l97.392 0 0 159.945 -153.026 0c-8.069,0 -15.514,2.666 -21.504,7.167l0 -145.608c0,-11.876 9.628,-21.504 21.504,-21.504l7.168 0 0 62.919c0,4.013 3.13,7.262 7.168,7.262 1.979,0 3.769,-0.804 5.068,-2.099l11.997 -11.997 11.997 11.997c1.299,1.295 3.09,2.099 5.068,2.099 3.959,0 7.168,-3.209 7.168,-7.168l0 -63.013zm-14.336 0l0 45.708 -9.897 -9.897 -9.897 9.897 0 -45.708 19.794 0zm-41.298 202.954c-3.959,0 -7.168,-3.209 -7.168,-7.169 0,-3.959 3.209,-7.168 7.168,-7.168l153.026 0 0 -14.336 -153.026 0c-11.876,0 -21.504,9.628 -21.504,21.504 0,11.877 9.628,21.505 21.504,21.505l153.026 0 0 -14.336 -153.026 0z"/>
 </g>
</svg>
