<svg id="图层_1" data-name="图层 1" xmlns="http://www.w3.org/2000/svg" viewBox="0 0 410.4 410.4"><defs><style>.cls-1{fill:#fefefe;}.cls-2{fill:#37d5fe;}.cls-3{fill:#9baafe;}.cls-4{fill:#8faffe;}.cls-5{fill:#4cccfe;}.cls-6{fill:#e889fe;}.cls-7{fill:#f484fe;}.cls-8{fill:#40d1fe;}.cls-9{fill:#df8dfe;}.cls-10{fill:#59c6fe;}.cls-11{fill:#64c2fe;}.cls-12{fill:#72bcfe;}.cls-13{fill:#cb96fe;}.cls-14{fill:#c19afe;}.cls-15{fill:#83b5fe;}.cls-16{fill:#78b9fe;}.cls-17{fill:#a9a4fe;}.cls-18{fill:#b79efe;}.cls-19{fill:#ca96fe;}.cls-20{fill:#d492fe;}.cls-21{fill:#ada2fe;}.cls-22{fill:#a4a6fe;}.cls-23{fill:#6abffe;}.cls-24{fill:#60c3fe;}.cls-25{fill:#fdfdfe;}.cls-26{fill:#92aefe;}.cls-27{fill:#75bbfe;}.cls-28{fill:#89b2fe;}.cls-29{fill:#8cb0fe;}.cls-30{fill:#80b6fe;}</style></defs><title>cloud</title><path class="cls-1" d="M63.2-154.4H256V256H-154.4V65.6a6.71,6.71,0,0,1,.74,1.71c.86,6.44,1.38,13,2.53,19.34,3.14,17.4,8,34.29,16,50.14a163.79,163.79,0,0,0,21.33,35.61l24.08,27L-65,219.31l21.56,12.82,21,9.46,20,6.43,23.21,4.77,24,2.19,23.2-.7,20-2.94,19.18-4.29,18.4-6.33,19.51-9.32,18.16-10.46,15.19-11.16,24.74-23.39c4.51-5.53,9.22-10.93,13.48-16.66,2.81-3.78,5-8,7.44-12.07,4.17-7.35,8.88-14.45,12.42-22.1,16.65-35.9,22-73.64,16.86-112.79A195.79,195.79,0,0,0,235-38.43c-3.13-6.38-7.2-12.3-10.85-18.43a6.79,6.79,0,0,0-.65-2.25q-10.1-13.27-20.27-26.48c-2.82-3.13-5.49-6.42-8.52-9.34-2.81-2.71-6-5-9-7.51l-18.47-15.11L150.41-128l-17.61-8.68-18.4-7.24-20-5.55-23.22-3.82Z" transform="translate(154.4 154.4)"/><path class="cls-1" d="M-154.4,35.2V-154.4h192c-1.36.26-2.72.58-4.09.77-3.46.49-6.93.91-10.4,1.36l-21,4.05-18.1,5.1-21,8.59-18.23,9.71-17,11.47L-92.12-96.29l-21.63,24.68A164.53,164.53,0,0,0-135.09-36C-143.89-18.54-148.9.07-152,19.25-152.89,24.55-153.61,29.88-154.4,35.2Z" transform="translate(154.4 154.4)"/><path class="cls-2" d="M-154.4,35.2c.79-5.32,1.51-10.65,2.38-16C-148.9.07-143.89-18.54-135.09-36c.5,1.06,1.43,2.13,1.43,3.19q.1,83.21,0,166.4c0,1.06-.93,2.13-1.43,3.19-8-15.85-12.9-32.74-16-50.14-1.15-6.39-1.67-12.9-2.53-19.34a6.71,6.71,0,0,0-.74-1.71Z" transform="translate(154.4 154.4)"/><path class="cls-3" d="M63.2-154.4l8,1.08q0,23.94,0,47.87a62.09,62.09,0,0,0-25.56-4.11c0-13.27,0-26.54,0-39.81a32.36,32.36,0,0,0-.76-5Z" transform="translate(154.4 154.4)"/><path class="cls-4" d="M44.8-154.4a32.36,32.36,0,0,1,.76,5c.07,13.27,0,26.54,0,39.81L24.45-103c-.41-1.57-1.18-3.13-1.2-4.7-.12-14.87-.11-29.74-.14-44.61,3.47-.45,6.94-.87,10.4-1.36,1.37-.19,2.73-.51,4.09-.77Z" transform="translate(154.4 154.4)"/><path class="cls-5" d="M-113.75-71.61l21.63-24.68a32.61,32.61,0,0,1,.88,5.41c.06,19.77,0,39.54.08,59.32a34.91,34.91,0,0,0,.88,5.4c-3.83,9.09-5,18.55-5,28.4q.28,48.69,0,97.37c-.09,11.87,2.14,22.94,8.28,33.14a21.86,21.86,0,0,0-1,4.42c-.06,18.34,0,36.68-.11,55,0,2.41-1.05,4.81-1.61,7.22l-24.08-27a27.64,27.64,0,0,0,.92-5q.07-117,0-234A28.61,28.61,0,0,0-113.75-71.61Z" transform="translate(154.4 154.4)"/><path class="cls-6" d="M203.19-85.59q10.14,13.23,20.27,26.48a6.79,6.79,0,0,1,.65,2.25c-.57,1.36-1.64,2.72-1.64,4.08q-.12,103.19,0,206.36c0,1.36,1.07,2.72,1.64,4.08-2.46,4-4.63,8.29-7.44,12.07-4.26,5.73-9,11.13-13.48,16.66a23.09,23.09,0,0,1-.76-4.15q0-131.84,0-263.68A23.09,23.09,0,0,1,203.19-85.59Z" transform="translate(154.4 154.4)"/><path class="cls-7" d="M224.11,157.66c-.57-1.36-1.64-2.72-1.64-4.08q-.12-103.18,0-206.36c0-1.36,1.07-2.72,1.64-4.08,3.65,6.13,7.72,12,10.85,18.43a195.79,195.79,0,0,1,18.43,61.2c5.11,39.15-.21,76.89-16.86,112.79C233,143.21,228.28,150.31,224.11,157.66Z" transform="translate(154.4 154.4)"/><path class="cls-8" d="M-113.75-71.61a28.61,28.61,0,0,1,.91,5q.07,117,0,234a27.64,27.64,0,0,1-.92,5,163.79,163.79,0,0,1-21.33-35.61c.5-1.06,1.43-2.13,1.43-3.19q.1-83.2,0-166.4c0-1.06-.93-2.13-1.43-3.19A164.53,164.53,0,0,1-113.75-71.61Z" transform="translate(154.4 154.4)"/><path class="cls-9" d="M203.19-85.59a23.09,23.09,0,0,0-.76,4.15q0,131.84,0,263.68a23.09,23.09,0,0,0,.76,4.15l-24.74,23.38q0-30.33-.09-60.68a20.65,20.65,0,0,0-1-4.41c14.21-12.91,19.17-29.1,18.82-48-.61-32.9-.2-65.83-.16-98.75,0-13-3.75-24.6-12-34.69a55.72,55.72,0,0,0,.76-6.65c.07-18.16,0-36.33.08-54.5a24.24,24.24,0,0,1,.82-4.49c3,2.49,6.2,4.8,9,7.51C197.7-92,200.37-88.72,203.19-85.59Z" transform="translate(154.4 154.4)"/><path class="cls-10" d="M-89.68,199.41c.56-2.41,1.59-4.81,1.61-7.22.13-18.34,0-36.68.11-55a21.86,21.86,0,0,1,1-4.42c6,8.95,14.55,15,23.79,20.21a45.49,45.49,0,0,0-.76,5.88c0,18.67,0,37.33-.07,56a23,23,0,0,1-.92,4.48Z" transform="translate(154.4 154.4)"/><path class="cls-11" d="M-65,219.31a23,23,0,0,0,.92-4.48c.06-18.66,0-37.32.07-56a45.49,45.49,0,0,1,.76-5.88l21.6,12.74c0,20.53,0,41.06-.07,61.59,0,1.61-1.12,3.22-1.72,4.84Z" transform="translate(154.4 154.4)"/><path class="cls-12" d="M-43.4,232.13c.6-1.62,1.71-3.23,1.72-4.84.12-20.53.08-41.06.07-61.59l20,11.24q0,29.19,0,58.37a52,52,0,0,1-.77,6.28Z" transform="translate(154.4 154.4)"/><path class="cls-13" d="M163.26,220.94,145.1,231.4a22.55,22.55,0,0,1-1-4.81C144,206,144,185.31,144,164.68l17.65-10.27c.53,1.83,1.5,3.67,1.51,5.51C163.26,180.26,163.24,200.6,163.26,220.94Z" transform="translate(154.4 154.4)"/><path class="cls-14" d="M144,164.68c0,20.63,0,41.27.08,61.91a22.55,22.55,0,0,0,1,4.81l-19.51,9.32a53.62,53.62,0,0,1-.76-6.27c-.08-19.56-.07-39.11-.1-58.67Z" transform="translate(154.4 154.4)"/><path class="cls-15" d="M20.8,252.79-2.41,248A33.72,33.72,0,0,0-1.63,243c.07-18.11.06-36.22.08-54.33l22.37,12.89Q20.81,227.17,20.8,252.79Z" transform="translate(154.4 154.4)"/><path class="cls-16" d="M-1.55,188.64c0,18.11,0,36.22-.08,54.33A33.72,33.72,0,0,1-2.41,248l-20-6.43a52,52,0,0,0,.77-6.28q.07-29.19,0-58.37Z" transform="translate(154.4 154.4)"/><path class="cls-17" d="M71.16-105.44q0-23.94,0-47.88L94.4-149.5c0,17.22,0,34.44,0,51.66a34.6,34.6,0,0,1-.76,5Q82.39-99.13,71.16-105.44Z" transform="translate(154.4 154.4)"/><path class="cls-18" d="M93.61-92.82a34.6,34.6,0,0,0,.76-5c0-17.22,0-34.44,0-51.66l20,5.55c0,19,0,38.07,0,57.1a36.27,36.27,0,0,1-.81,5.44Z" transform="translate(154.4 154.4)"/><path class="cls-14" d="M113.55-81.41a36.27,36.27,0,0,0,.81-5.44c.07-19,0-38.06,0-57.1l18.4,7.24c0,20,0,40,0,60a52,52,0,0,1-.77,6.28Z" transform="translate(154.4 154.4)"/><path class="cls-19" d="M132-70.47a52,52,0,0,0,.77-6.28c.06-20,0-40,0-60L150.41-128q0,31,0,61.93a36.43,36.43,0,0,1-.8,5.44Z" transform="translate(154.4 154.4)"/><path class="cls-20" d="M185.66-102.44a24.24,24.24,0,0,0-.82,4.49c-.06,18.17,0,36.34-.08,54.5A55.72,55.72,0,0,1,184-36.8L167.2-50.4v-67.15Z" transform="translate(154.4 154.4)"/><path class="cls-18" d="M124.73,175.78c0,19.56,0,39.11.1,58.67a53.62,53.62,0,0,0,.76,6.27l-18.4,6.33a46.84,46.84,0,0,1-.76-5.85c-.06-18.29,0-36.58-.05-54.87Z" transform="translate(154.4 154.4)"/><path class="cls-13" d="M167.19-117.55q0,33.57,0,67.15L149.56-60.66a36.43,36.43,0,0,0,.8-5.44q.09-31,0-61.93Z" transform="translate(154.4 154.4)"/><path class="cls-4" d="M20.8,252.79q0-25.64,0-51.26c7.58,4.07,15.35,7.63,24,8.82q0,22.32,0,44.63Z" transform="translate(154.4 154.4)"/><path class="cls-21" d="M106.38,186.32c0,18.3,0,36.59.05,54.88a46.84,46.84,0,0,0,.76,5.85L88,251.34a64.73,64.73,0,0,1-.77-7c-.09-15.62-.07-31.24-.08-46.86Z" transform="translate(154.4 154.4)"/><path class="cls-3" d="M44.79,255q0-22.3,0-44.63l22.35-2.56a32.51,32.51,0,0,1,.81,5c.07,13.82,0,27.64,0,41.46Z" transform="translate(154.4 154.4)"/><path class="cls-20" d="M163.26,220.94c0-20.34,0-40.68-.13-61,0-1.84-1-3.68-1.51-5.51l15.73-9.73a20.65,20.65,0,0,1,1,4.41q.12,30.35.09,60.68Z" transform="translate(154.4 154.4)"/><path class="cls-22" d="M68,254.28c0-13.82,0-27.64,0-41.46a32.51,32.51,0,0,0-.81-5l20-10.35c0,15.62,0,31.24.08,46.86a64.73,64.73,0,0,0,.77,7Z" transform="translate(154.4 154.4)"/><path class="cls-10" d="M-90.28-26.16a34.91,34.91,0,0,1-.88-5.4c-.06-19.78,0-39.55-.08-59.32a32.61,32.61,0,0,0-.88-5.41l19.92-17.06a42.07,42.07,0,0,1,1,6.24c.07,19.9,0,39.81,0,59.72A57.77,57.77,0,0,0-90.28-26.16Z" transform="translate(154.4 154.4)"/><path class="cls-12" d="M-37-134.53l21-8.59q0,31.88,0,63.75l-19.2,11.13c0-20.49.05-41-.07-61.46C-35.29-131.32-36.4-132.92-37-134.53Z" transform="translate(154.4 154.4)"/><path class="cls-23" d="M-37-134.53c.61,1.61,1.72,3.21,1.73,4.83.12,20.48.07,41,.07,61.46l-18.4,10.53c0-20.55,0-41.1-.06-61.65,0-1.82-1-3.64-1.57-5.46Z" transform="translate(154.4 154.4)"/><path class="cls-24" d="M-55.24-124.82c.55,1.82,1.56,3.64,1.57,5.46.11,20.55.07,41.1.06,61.65l-17.6,10.32c0-19.91,0-39.82,0-59.72a42.07,42.07,0,0,0-1-6.24Z" transform="translate(154.4 154.4)"/><path class="cls-16" d="M-16-79.37q0-31.87,0-63.75l18.1-5.1a19,19,0,0,1,1,4.4c.07,17.77,0,35.55,0,53.32Z" transform="translate(154.4 154.4)"/><path class="cls-15" d="M3.19-90.5c0-17.77,0-35.55,0-53.32a19,19,0,0,0-1-4.4l21-4.05c0,14.87,0,29.74.14,44.61,0,1.57.79,3.13,1.2,4.7Z" transform="translate(154.4 154.4)"/><path class="cls-25" d="M3.19-90.5,24.45-103l21.15-6.6a62.09,62.09,0,0,1,25.56,4.11L93.61-92.82l19.94,11.41L132-70.47l17.56,9.81L167.2-50.4,184-36.8c8.26,10.09,12,21.71,12,34.69,0,32.92-.45,65.85.16,98.75.35,18.94-4.61,35.13-18.82,48l-15.73,9.73L144,164.68l-19.24,11.1-18.35,10.55L87.16,197.44l-20,10.35L44.8,210.35c-8.63-1.19-16.4-4.75-24-8.82L-1.55,188.64l-20.06-11.7-20-11.24L-63.21,153c-9.24-5.2-17.74-11.26-23.79-20.21-6.14-10.2-8.37-21.27-8.28-33.14q.34-48.69,0-97.37c-.06-9.85,1.16-19.31,5-28.4A57.77,57.77,0,0,1-71.21-47.39l17.6-10.32,18.4-10.53L-16-79.37ZM18.4,172l14.3,8.12c4.52,3.37,9.35,5.93,15.2,5.8a26.18,26.18,0,0,0,4.64.43c7.09-.55,12.95-4.09,18.66-8l28-16,23.21-13.49,19.22-11.13,17.67-10.31c8.16-5,12.54-12.42,12.59-21.77q.33-55.2,0-110.39c0-9.36-4.43-16.81-12.59-21.78L141.63-36.89,123.27-47.41,104.05-58.54l-19.26-11-18.3-10.7c-5.55-4.05-11.62-6.09-18.55-4.89-7.47.33-13.45,4.14-19.33,8.2L10.35-66.44-8.86-55.34-31.23-42.46-50.46-31.37c-13.77,6-21.11,15.81-20.89,31.59q.7,50.18,0,100.36c-.22,15.78,7.13,25.56,20.89,31.59l19.23,11.09,23.82,13.68Z" transform="translate(154.4 154.4)"/><path class="cls-26" d="M47.9,185.87c-5.85.13-10.68-2.43-15.2-5.8a16.39,16.39,0,0,0,.86-3.7q.07-53.84,0-107.68a17.35,17.35,0,0,0-1-4c1.54-1.46,3-3,4.63-4.37,6.88-5.65,6.91-14.13.11-19.74-2.66-2.19-5.15-4.58-7.72-6.87a28.86,28.86,0,0,0,.79-4.64c.09-6.39,0-12.77,0-19.16,0-27.54,0-55.08-.08-82.61,0-1.4-1.12-2.79-1.71-4.19,5.88-4.06,11.86-7.87,19.33-8.19a65.18,65.18,0,0,1,.82,7.46q.08,78.42.08,156.84a25.85,25.85,0,0,0,.94,4.84q-.08,5.57-.16,11.15a26.52,26.52,0,0,0-.78,4.53c-.05,26.9,0,53.81-.08,80.71A34.06,34.06,0,0,1,47.9,185.87Z" transform="translate(154.4 154.4)"/><path class="cls-27" d="M-7.41,156.94l-23.82-13.68a32.6,32.6,0,0,0,.8-5q.06-87.82,0-175.65a32.48,32.48,0,0,0-.8-5L-8.86-55.34A25.65,25.65,0,0,1-8-50.73Q-8-27.27-8-3.82a29.24,29.24,0,0,1-.88,5C-16.18-3.16-23.09-.26-26.17,4.4c-3.68,5.58-2.2,12,3.86,17.09,4,3.41,8,7,11.94,10.44V68.87c-4.4,3.8-8.78,7.61-13.19,11.39a12.35,12.35,0,0,0-3.56,14.36c2.18,4.85,7,7.82,12.18,6.87,2.64-.47,5.08-2.06,7.61-3.14.57,1.14,1.65,2.27,1.66,3.41q.15,25.58,0,51.14C-5.69,154.25-6.81,155.59-7.41,156.94Z" transform="translate(154.4 154.4)"/><path class="cls-14" d="M123.27-47.41l18.36,10.52V137.68l-19.22,11.13a32.14,32.14,0,0,1-.77-5c-.07-14.31,0-28.61,0-42.91,9.93-5.69,9.9-15.71-.06-22.47.55-1.76,1.58-3.53,1.59-5.29Q123.29,12.86,123.27-47.41Z" transform="translate(154.4 154.4)"/><path class="cls-23" d="M-31.23-42.46a32.48,32.48,0,0,1,.8,5q.06,87.82,0,175.65a32.6,32.6,0,0,1-.8,5l-19.23-11.09a52.35,52.35,0,0,0,.82-6.67q.07-75.1,0-150.2a52.35,52.35,0,0,0-.82-6.67Z" transform="translate(154.4 154.4)"/><path class="cls-24" d="M-50.46-31.37a52.35,52.35,0,0,1,.82,6.67q.07,75.11,0,150.2a52.35,52.35,0,0,1-.82,6.67c-13.76-6-21.11-15.81-20.89-31.59q.7-50.17,0-100.36C-71.57-15.56-64.23-25.34-50.46-31.37Z" transform="translate(154.4 154.4)"/><path class="cls-3" d="M49.78,84.05a25.85,25.85,0,0,1-.94-4.84Q48.77.79,48.76-77.63a65.18,65.18,0,0,0-.82-7.46c6.93-1.21,13,.83,18.55,4.88,0,1.73-.09,3.46-.09,5.19V77.58C59.94,77.38,53.75,77.86,49.78,84.05Z" transform="translate(154.4 154.4)"/><path class="cls-21" d="M84.79-69.51l19.26,11q0,68.05,0,136.12H84Q84,7.17,84-63.24A53.62,53.62,0,0,1,84.79-69.51Z" transform="translate(154.4 154.4)"/><path class="cls-19" d="M141.63,137.68V-36.89L159.3-26.57a29.3,29.3,0,0,0-.86,5q-.08,72,0,143.9a29.3,29.3,0,0,0,.86,5Z" transform="translate(154.4 154.4)"/><path class="cls-22" d="M84.79-69.51A53.62,53.62,0,0,0,84-63.24Q84,7.17,84,77.58H66.4V-75c0-1.73.06-3.46.09-5.19Z" transform="translate(154.4 154.4)"/><path class="cls-18" d="M104,77.58q0-68.05,0-136.12l19.22,11.13q0,60.27-.14,120.54c0,1.76-1,3.53-1.59,5.29Z" transform="translate(154.4 154.4)"/><path class="cls-17" d="M99.2,162.3l-28,16q0-38.23,0-76.49h28Q99.19,132.07,99.2,162.3Z" transform="translate(154.4 154.4)"/><path class="cls-20" d="M159.3,127.37a29.3,29.3,0,0,1-.86-5q-.08-72,0-143.9a29.3,29.3,0,0,1,.86-5c8.16,5,12.54,12.42,12.59,21.78q.33,55.19,0,110.39C171.84,115,167.46,122.4,159.3,127.37Z" transform="translate(154.4 154.4)"/><path class="cls-28" d="M28.61-76.9c.59,1.4,1.71,2.79,1.71,4.19.11,27.53.08,55.07.08,82.61,0,6.39.05,12.77,0,19.16a28.86,28.86,0,0,1-.79,4.64L11.08,18q.06-40.95.08-81.89a9,9,0,0,0-.81-2.53Z" transform="translate(154.4 154.4)"/><path class="cls-15" d="M-7.41,156.94c.6-1.35,1.72-2.69,1.73-4q.18-25.56,0-51.14c0-1.14-1.09-2.27-1.66-3.41,2-1.76,3.85-3.59,5.87-5.28C4.8,87.85,11.1,82.68,17.39,77.49a25.84,25.84,0,0,1,1,4.83q.09,44.82,0,89.63Z" transform="translate(154.4 154.4)"/><path class="cls-3" d="M71.19,101.87q0,38.23,0,76.48c-5.71,3.86-11.57,7.4-18.66,8a26.18,26.18,0,0,1-4.64-.43,34.06,34.06,0,0,0,.86-5.43c.06-26.9,0-53.81.08-80.71a26.52,26.52,0,0,1,.78-4.53c3.14,4.71,7.4,7,13.19,6.53A75.68,75.68,0,0,1,71.19,101.87Z" transform="translate(154.4 154.4)"/><path class="cls-29" d="M18.4,172q0-44.82,0-89.63a25.84,25.84,0,0,0-1-4.83L32.55,64.68a17.35,17.35,0,0,1,1,4q.07,53.85,0,107.68a16.39,16.39,0,0,1-.86,3.7Z" transform="translate(154.4 154.4)"/><path class="cls-30" d="M10.35-66.44a9,9,0,0,1,.81,2.53Q11.18-23,11.08,18l-20-16.79a29.24,29.24,0,0,0,.88-5q.1-23.46,0-46.91a25.65,25.65,0,0,0-.82-4.61Z" transform="translate(154.4 154.4)"/><path class="cls-18" d="M99.2,162.3q0-30.23,0-60.45c2.39,0,4.79,0,7.17-.09,5.08-.24,10.16-.57,15.24-.87,0,14.3,0,28.6,0,42.91a32.14,32.14,0,0,0,.77,5Z" transform="translate(154.4 154.4)"/><path class="cls-25" d="M-8.92,1.19,11.08,18,29.57,33.7c2.57,2.29,5.06,4.68,7.72,6.87,6.8,5.61,6.77,14.09-.11,19.74-1.63,1.34-3.09,2.91-4.63,4.37L17.39,77.49C11.1,82.68,4.8,87.85-1.46,93.07c-2,1.69-3.92,3.52-5.87,5.28-2.53,1.08-5,2.67-7.61,3.14-5.21,1-10-2-12.18-6.87a12.35,12.35,0,0,1,3.56-14.36c4.41-3.78,8.79-7.59,13.19-11.39l22.3-18.49-22.3-18.45c-4-3.49-7.9-7-11.94-10.44C-28.37,16.36-29.85,10-26.17,4.4-23.09-.26-16.18-3.16-8.92,1.19Z" transform="translate(154.4 154.4)"/><path class="cls-25" d="M121.6,100.89c-5.08.3-10.16.63-15.24.87-2.38.12-4.78.07-7.17.09h-28a78.19,78.19,0,0,0-8.38-.13c-5.79.48-10.05-1.82-13.19-6.53q.09-5.58.16-11.15c4-6.19,10.16-6.67,16.62-6.47H104l17.54.84C131.5,85.18,131.53,95.2,121.6,100.89Z" transform="translate(154.4 154.4)"/><path class="cls-30" d="M-10.37,31.93l22.3,18.45-22.3,18.49Z" transform="translate(154.4 154.4)"/></svg>