<svg id="图层_1" data-name="图层 1" xmlns="http://www.w3.org/2000/svg" viewBox="0 0 410.4 410.4"><defs><style>.cls-1{fill:#e1e4e6;}.cls-2{fill:#fefefe;}.cls-3{fill:#84bc5a;}.cls-4{fill:#b0b7bd;}.cls-5{fill:#c9d0d7;}.cls-6{fill:#fcfdfb;}.cls-7{fill:#fbfdfa;}</style></defs><title>excel</title><path class="cls-1" d="M-59.2-154.4H128a5.62,5.62,0,0,1,0,.71,27.71,27.71,0,0,0-.8,4.54c0,23.27.21,46.54-.12,69.8-.21,14.91,11,27.35,26.44,27.44A25,25,0,0,0,156-48.42q35,35,70,70a22.27,22.27,0,0,0,3.52,2.4l0,204.22c0,12.75-6.88,22.15-18.9,26A12.3,12.3,0,0,0,208,256H-56A17.85,17.85,0,0,0-59.44,254a25.81,25.81,0,0,1-18.15-24.87c0-8.37,0-16.75,0-25.12l242.9,0c.4,0,.8,0,1.19,0a12.69,12.69,0,0,0,11.8-12c.16-3.58-.08-7.18-.14-10.77.06-2.13.18-4.26.18-6.39q0-60.76,0-121.54c0-11.2-4.54-15.74-15.77-15.74H-72.44c-1.73,0-3.46-.08-5.19-.12,0-4.67,0-9.33,0-14q0-75.78,0-151.57c0-8.38,3-15.6,10-20.73C-64.87-150.82-62-152.55-59.2-154.4Z" transform="translate(154.4 154.4)"/><path class="cls-2" d="M-59.2-154.4c-2.79,1.85-5.67,3.58-8.37,5.57-7,5.13-10,12.35-10,20.73q-.12,75.78,0,151.57c0,4.67,0,9.33,0,14l-36.74.13c-9.28,0-14.42,5.08-14.42,14.28q0,62.5,0,125c0,9.22,5.12,14.25,14.4,14.3q18.36.08,36.74.12l.11,12.64c0,8.37-.07,16.75,0,25.12A25.81,25.81,0,0,0-59.44,254,17.85,17.85,0,0,1-56,256h-98.4V-154.4Z" transform="translate(154.4 154.4)"/><path class="cls-2" d="M208,256a12.3,12.3,0,0,1,2.7-1.77c12-3.88,18.9-13.28,18.9-26l0-204.22q0-36.53,0-73a20,20,0,0,0-.76-3.75L128-153.69a5.62,5.62,0,0,0,0-.71H256V256Z" transform="translate(154.4 154.4)"/><path class="cls-3" d="M-77.65,191.32q-18.37-.06-36.74-.12c-9.28,0-14.4-5.08-14.4-14.3q0-62.51,0-125c0-9.2,5.14-14.23,14.42-14.28l36.74-.13c1.73,0,3.46.12,5.19.12H162.63c11.23,0,15.77,4.54,15.77,15.74q0,60.76,0,121.54c0,2.13-.12,4.26-.18,6.39-2.78,7.37-8.26,10-15.92,10q-117.18-.15-234.35,0C-73.92,191.21-75.79,191.28-77.65,191.32Zm167.59-101c4,1.33,8.57,2.63,13,4.39,4,1.63,7,1.28,8.7-1.69s.78-6.18-2.48-8.69c-9.76-7.5-29.07-7.28-38.74.44-10.91,8.71-9.58,25.23,2.8,31.66,4.32,2.25,9.17,3.47,13.79,5.16,4.11,1.5,8.5,2.52,12.25,4.66a10,10,0,0,1,4.4,6.49,7.06,7.06,0,0,1-4.88,7.51c-3.21,1.06-6.89,2.29-10,1.67a93.07,93.07,0,0,1-17.24-5.68c-4.8-2-9,.2-9.27,5.41a7.49,7.49,0,0,0,4.19,7.19c13.3,7.55,27,8.68,40.71,1.39,7-3.75,10.13-10.39,10.09-18.29,0-8.08-4.3-13.58-11.53-16.67-4.5-1.93-9.28-3.23-13.91-4.87-3.76-1.32-7.79-2.23-11.12-4.27a10.73,10.73,0,0,1-4.29-6.53c-.64-3.26,1.69-5.92,4.68-7.17C83.55,91.39,86.39,91.13,89.94,90.33ZM-30,116.09c1.32-1.7,2.35-3.08,3.43-4.42,4.77-5.91,9.7-11.69,14.24-17.77,1.39-1.85,2.67-4.74,2.21-6.75A7.72,7.72,0,0,0-15,82.26c-1.91-.4-5,1-6.39,2.6-6,6.91-11.56,14.19-17.47,21.57-1-1.25-1.9-2.25-2.73-3.27-5.12-6.3-10-12.78-15.49-18.81a7.85,7.85,0,0,0-6.53-2.09,7.76,7.76,0,0,0-4.76,5.07c-.37,2,1.09,4.84,2.52,6.72,4.74,6.26,9.67,12.39,14.86,18.29,2.37,2.68,2.67,4.43.23,7.32-6,7.13-11.64,14.57-17.37,21.92-1.81,2.33-3.24,5.24-.95,7.61a10.93,10.93,0,0,0,7,3.32c1.85,0,4.1-2.22,5.5-4,5.05-6.35,9.82-12.94,14.71-19.43C-41,128-40.11,127-39,125.67c1.27,1.57,2.2,2.68,3.1,3.83,5.17,6.61,10.24,13.3,15.52,19.82,3.15,3.88,7.29,4.38,10.46,1.66,2.88-2.48,2.88-6.16,0-10-.32-.43-.68-.82-1-1.24C-17.24,132-23.48,124.18-30,116.09Zm46,23.22v-6c0-14.8,0-29.59,0-44.39,0-4-2.41-6.75-5.74-7S3.92,84.37,3.48,88.4a47.23,47.23,0,0,0-.09,5.19q0,25.39,0,50.79c0,5.84,2.11,8.35,7.24,8.39q16.4.15,32.79,0c4.8,0,7.64-2.48,7.83-6.25.21-4-2.46-6.63-7.45-7.14-1.32-.13-2.66-.06-4-.06Z" transform="translate(154.4 154.4)"/><path class="cls-4" d="M128-153.69,228.81-52.8a29,29,0,0,1-4.56.77q-35.35.11-70.7.12C138.08-52,126.9-64.44,127.11-79.35c.33-23.26.07-46.53.12-69.8A27.71,27.71,0,0,1,128-153.69Z" transform="translate(154.4 154.4)"/><path class="cls-5" d="M-77.65,191.32c1.86,0,3.73-.11,5.59-.11q117.18,0,234.35,0c7.66,0,13.14-2.62,15.92-10,.06,3.59.3,7.19.14,10.77a12.69,12.69,0,0,1-11.8,12c-.39,0-.79,0-1.19,0l-242.9,0Q-77.6,197.65-77.65,191.32Z" transform="translate(154.4 154.4)"/><path class="cls-5" d="M153.55-51.91q35.34,0,70.7-.12a29,29,0,0,0,4.56-.77,20,20,0,0,1,.76,3.75q0,36.51,0,73a22.27,22.27,0,0,1-3.52-2.4q-35.06-34.95-70-70A25,25,0,0,1,153.55-51.91Z" transform="translate(154.4 154.4)"/><path class="cls-6" d="M89.94,90.33c-3.55.8-6.39,1.06-8.9,2.11-3,1.25-5.32,3.91-4.68,7.17a10.73,10.73,0,0,0,4.29,6.53c3.33,2,7.36,3,11.12,4.27,4.63,1.64,9.41,2.94,13.91,4.87,7.23,3.09,11.49,8.59,11.53,16.67,0,7.9-3,14.54-10.09,18.29-13.7,7.29-27.41,6.16-40.71-1.39a7.49,7.49,0,0,1-4.19-7.19c.24-5.21,4.47-7.42,9.27-5.41a93.07,93.07,0,0,0,17.24,5.68c3.11.62,6.79-.61,10-1.67a7.06,7.06,0,0,0,4.88-7.51,10,10,0,0,0-4.4-6.49c-3.75-2.14-8.14-3.16-12.25-4.66-4.62-1.69-9.47-2.91-13.79-5.16-12.38-6.43-13.71-23-2.8-31.66,9.67-7.72,29-7.94,38.74-.44,3.26,2.51,4.19,5.77,2.48,8.69s-4.65,3.32-8.7,1.69C98.51,93,93.94,91.66,89.94,90.33Z" transform="translate(154.4 154.4)"/><path class="cls-6" d="M-30,116.09c6.49,8.09,12.73,15.88,19,23.66.33.42.69.81,1,1.24,2.9,3.83,2.9,7.51,0,10-3.17,2.72-7.31,2.22-10.46-1.66-5.28-6.52-10.35-13.21-15.52-19.82-.9-1.15-1.83-2.26-3.1-3.83-1.07,1.28-2,2.31-2.84,3.42-4.89,6.49-9.66,13.08-14.71,19.43-1.4,1.77-3.65,4-5.5,4a10.93,10.93,0,0,1-7-3.32c-2.29-2.37-.86-5.28.95-7.61,5.73-7.35,11.36-14.79,17.37-21.92,2.44-2.89,2.14-4.64-.23-7.32-5.19-5.9-10.12-12-14.86-18.29-1.43-1.88-2.89-4.67-2.52-6.72a7.76,7.76,0,0,1,4.76-5.07,7.85,7.85,0,0,1,6.53,2.09c5.44,6,10.37,12.51,15.49,18.81.83,1,1.69,2,2.73,3.27C-33,99.05-27.41,91.77-21.41,84.86c1.4-1.62,4.48-3,6.39-2.6a7.72,7.72,0,0,1,4.93,4.89c.46,2-.82,4.9-2.21,6.75-4.54,6.08-9.47,11.86-14.24,17.77C-27.62,113-28.65,114.39-30,116.09Z" transform="translate(154.4 154.4)"/><path class="cls-7" d="M16,139.31H39.81c1.34,0,2.68-.07,4,.06,5,.51,7.66,3.1,7.45,7.14-.19,3.77-3,6.21-7.83,6.25q-16.39.17-32.79,0c-5.13,0-7.22-2.55-7.24-8.39q0-25.39,0-50.79a47.23,47.23,0,0,1,.09-5.19c.44-4,3.3-6.7,6.75-6.47s5.72,2.93,5.74,7c.07,14.8,0,29.59,0,44.39Z" transform="translate(154.4 154.4)"/></svg>