<svg id="图层_1" data-name="图层 1" xmlns="http://www.w3.org/2000/svg" viewBox="0 0 384.75 384.75"><defs><style>.cls-1{fill:#4987e9;}.cls-2{fill:#fefefe;}.cls-3{fill:#6aa8fe;}.cls-4{fill:#dde5f3;}.cls-5{fill:#eef5fe;}</style></defs><title>jx3box</title><path class="cls-1" d="M243-43.25V145c-1.38,4.21-2.36,8.6-4.19,12.59-10.44,22.7-28.48,33.56-53.27,33.57q-65.43,0-130.87,0c-1.23,0-2.46-.22-3.7-.33q0-23.79,0-47.57,0-29.21-.13-58.41c.28-1.2.57-2.39.85-3.58a11.93,11.93,0,0,0,.85-1.62Q59.88,59,67.15,38.43,79,4.8,90.85-28.86c2.42-6.9-.23-13.25-6.26-15.49-6.29-2.34-12.52.83-15.09,7.78-1.76,4.79-3.38,9.64-5.11,14.44Q57.75-3.72,51.05,14.68,51-37.56,51-89.81a15.39,15.39,0,0,1,2.2-.33q67.13,0,134.24,0c30.38,0,48.59,20.88,53.66,39.85C241.7-47.94,242.36-45.6,243-43.25ZM169.55,47.41a48.3,48.3,0,0,0-4.73,3.49q-26.68,26.61-53.29,53.3c-4.73,4.75-4.81,11.65-.42,16.13s11.39,4.55,16.14-.17q32.42-32.26,64.69-64.7c4.75-4.77,4.85-11.36.13-16.12Q162.9,9.91,133.5-19.28a10.83,10.83,0,0,0-9.21-3.29A10.62,10.62,0,0,0,115-15.45c-1.83,4.86-.4,9,3.19,12.64q23.33,23.33,46.68,46.64A51.53,51.53,0,0,0,169.55,47.41Z" transform="translate(141.75 141.5)"/><path class="cls-2" d="M243-43.25c-.64-2.35-1.3-4.69-1.93-7-5.07-19-23.28-39.84-53.66-39.85q-67.12,0-134.24,0a15.39,15.39,0,0,0-2.2.33c-46.36,0-92.73-.31-139.09,0-29.29.21-52.81,24.52-52.85,53.84q-.14,86.43.06,172.85A55.6,55.6,0,0,0-139,151a53.41,53.41,0,0,0,50.85,39.83c31.49.34,63,.13,94.48.13,14.87,0,29.74-.07,44.61-.11,1.24.11,2.47.33,3.7.33q65.43,0,130.87,0c24.79,0,42.83-10.87,53.27-33.57,1.83-4,2.81-8.38,4.19-12.59v98.25H-141.75V-141.5H243Z" transform="translate(141.75 141.5)"/><path class="cls-3" d="M51,190.81c-14.87,0-29.74.11-44.61.11-31.49,0-63,.21-94.48-.13A53.41,53.41,0,0,1-139,151a55.6,55.6,0,0,1-1.94-14q-.19-86.43-.06-172.85c0-29.32,23.56-53.63,52.85-53.84,46.36-.35,92.73-.06,139.09,0q0,52.25.08,104.49c-.23,1.21-.47,2.41-.71,3.62Q42.26,41.07,34.16,63.85q-11.68,33-23.32,66.07c-2.42,6.87.34,13.23,6.48,15.37s12.21-1.06,14.76-7.92c.35-.93.64-1.89,1-2.83l17.8-49.71q.07,29.21.13,58.41Q51,167,51,190.81ZM-67.13,53a28.66,28.66,0,0,0,4.26-2.85q26.57-26.45,53-53c4.94-4.95,5.2-11.86.77-16.41-4.63-4.74-11.52-4.56-16.67.59q-32,31.92-63.89,63.9c-5.09,5.1-5.29,11.6-.27,16.66q29.07,29.28,58.31,58.35A10.86,10.86,0,0,0-22,123.54a10.68,10.68,0,0,0,9.14-7.34c1.65-4.6.41-8.66-2.93-12Q-30.07,89.79-44.44,75.52C-51.6,68.37-58.79,61.26-67.13,53Z" transform="translate(141.75 141.5)"/><path class="cls-4" d="M169.55,47.41a51.53,51.53,0,0,1-4.71-3.58Q141.47,20.55,118.16-2.81c-3.59-3.59-5-7.78-3.19-12.64a10.62,10.62,0,0,1,9.32-7.12,10.83,10.83,0,0,1,9.21,3.29Q162.83,10,192.07,39.34c4.72,4.76,4.62,11.35-.13,16.12q-32.26,32.43-64.69,64.7c-4.75,4.72-11.74,4.65-16.14.17s-4.31-11.38.42-16.13q26.58-26.72,53.29-53.3A48.3,48.3,0,0,1,169.55,47.41Z" transform="translate(141.75 141.5)"/><path class="cls-5" d="M50.86,84.83l-17.8,49.71c-.34.94-.63,1.9-1,2.83-2.55,6.86-8.56,10.08-14.76,7.92s-8.9-8.5-6.48-15.37q11.6-33.06,23.32-66.07Q42.23,41.07,50.34,18.3A34.92,34.92,0,0,1,51,23.05C51,40.74,51,58.44,51,76.14a40.91,40.91,0,0,0,.68,5.11C51.43,82.44,51.14,83.63,50.86,84.83Z" transform="translate(141.75 141.5)"/><path class="cls-4" d="M51.71,81.25A40.91,40.91,0,0,1,51,76.14C51,58.44,51,40.74,51,23.05a34.92,34.92,0,0,0-.63-4.75c.24-1.21.48-2.41.71-3.62q6.68-18.4,13.34-36.81c1.73-4.8,3.35-9.65,5.11-14.44,2.57-7,8.8-10.12,15.09-7.78,6,2.24,8.68,8.59,6.26,15.49Q79.06,4.8,67.15,38.43,59.87,59,52.56,79.63A11.93,11.93,0,0,1,51.71,81.25Z" transform="translate(141.75 141.5)"/><path class="cls-5" d="M-67.13,53c8.34,8.28,15.53,15.39,22.69,22.54q14.34,14.3,28.62,28.65c3.34,3.37,4.58,7.43,2.93,12A10.68,10.68,0,0,1-22,123.54a10.86,10.86,0,0,1-9.55-3.33Q-60.77,91.08-89.89,61.86c-5-5.06-4.82-11.56.27-16.66q31.91-32,63.89-63.9c5.15-5.15,12-5.33,16.67-.59,4.43,4.55,4.17,11.46-.77,16.41q-26.47,26.57-53,53A28.66,28.66,0,0,1-67.13,53Z" transform="translate(141.75 141.5)"/></svg>