<svg id="图层_1" data-name="图层 1" xmlns="http://www.w3.org/2000/svg" viewBox="0 0 384.62 384.68"><defs><style>.cls-1{fill:#fefefe;}.cls-2{fill:#fae26a;}.cls-3{fill:#9aa3a7;}.cls-4{fill:#f6cb38;}.cls-5{fill:#e7ecf0;}.cls-6{fill:#e4eaee;}</style></defs><title>other</title><path class="cls-1" d="M242.89,243.25H-141.73V-141.43H242.89ZM9-75.55c0-4,.15-8,0-12-.68-13.73-9.64-23.65-23.71-23.84-28.37-.37-56.74-.29-85.11,0C-113.39-111.27-123-99.7-123-88.15q0,120.74,0,241.46c0,12.15,11.34,23.21,23.28,23.19q37.13,0,74.24,0L81,176.43c4.82,5.5,9.1,11.62,14.56,16.4C114.66,209.55,136.89,216.05,162,211c36.61-7.37,61.87-37.66,62.77-75.08.2-8-1.47-16.28-3.6-24.08-6-22.12-20.33-37.64-40.67-47.68-4.95-2.44-10.38-3.94-15.6-5.87q0-39.18,0-78.35c0-10.61.2-21.21,0-31.81A24.18,24.18,0,0,0,163-60.49c-4.25-10.36-12.6-14.92-23.37-15C96.1-75.59,52.55-75.53,9-75.55Z" transform="translate(141.73 141.43)"/><path class="cls-2" d="M81,176.43l-106.47.07q-37.12,0-74.24,0c-11.94,0-23.28-11-23.28-23.19q0-120.74,0-241.46c0-11.55,9.6-23.12,23.14-23.26,28.37-.27,56.74-.35,85.11,0,14.07.19,23,10.11,23.71,23.84.19,4,0,8,0,12,0,10.61.15,21.22-.1,31.82-.08,3.57,1.11,4.31,4.44,4.3q63.46-.16,126.93,0A31.34,31.34,0,0,1,150-37.54c8.33,2.83,12.22,9.67,14.85,17.47q0,39.18,0,78.35a43,43,0,0,1-5.21-.41,68.75,68.75,0,0,0-30.18.69C103.45,65,85.09,80.69,74.64,105.41c-6.32,15-7.86,30.58-3.57,46.22C73.41,160.16,77.63,168.18,81,176.43Z" transform="translate(141.73 141.43)"/><path class="cls-3" d="M81,176.43c-3.36-8.25-7.58-16.27-9.92-24.8-4.29-15.64-2.75-31.27,3.57-46.22C85.09,80.69,103.45,65,129.52,58.56a68.75,68.75,0,0,1,30.18-.69,43,43,0,0,0,5.21.41c5.22,1.93,10.65,3.43,15.6,5.87,20.34,10,34.64,25.56,40.67,47.68,2.13,7.8,3.8,16.07,3.6,24.08-.9,37.42-26.16,67.71-62.77,75.08-25.12,5.06-47.35-1.44-66.46-18.16C90.09,188.05,85.81,181.93,81,176.43Zm60-30.1h0c0,2.25-.16,4.51,0,6.74a5.75,5.75,0,0,0,6.07,5.4c3.32-.16,5.27-2,5.81-5.28a10.82,10.82,0,0,0,0-3.36c-.42-2.83.7-4.05,3.48-5A29.85,29.85,0,0,0,174.67,105c-5.39-13.07-17.61-19.57-33-17.79-14.09,1.63-25,16.33-24.66,27.8.12,4.61,2,7.21,5.57,7.47s6-2.19,6.47-7c.78-8.88,8-16.42,16.18-17,10-.69,19.21,6.6,19.61,16.49s-5.13,18-16.61,19.43c-5.69.71-7.18,2.18-7.21,7.77C141,143.58,141,145,141,146.33Zm12,30a6,6,0,1,0-5.79,6.12A6,6,0,0,0,153,176.38Z" transform="translate(141.73 141.43)"/><path class="cls-4" d="M164.89-20.07c-2.63-7.8-6.52-14.64-14.85-17.47a31.34,31.34,0,0,0-9.76-1.88q-63.46-.18-126.93,0c-3.33,0-4.52-.73-4.44-4.3.25-10.6.1-21.21.1-31.82,43.54,0,87.09,0,130.63.1,10.77,0,19.12,4.6,23.37,15a24.18,24.18,0,0,1,1.89,8.61C165.09-41.28,164.92-30.68,164.89-20.07Z" transform="translate(141.73 141.43)"/><path class="cls-5" d="M141,146.33c0-1.37,0-2.75,0-4.12,0-5.59,1.52-7.06,7.21-7.77,11.48-1.44,17-9.55,16.61-19.43s-9.61-17.18-19.61-16.49c-8.22.57-15.4,8.11-16.18,17-.43,4.78-2.71,7.24-6.47,7s-5.45-2.86-5.57-7.47c-.32-11.47,10.57-26.17,24.66-27.8,15.41-1.78,27.63,4.72,33,17.79a29.85,29.85,0,0,1-18.22,39.88c-2.78.9-3.9,2.12-3.48,5a10.82,10.82,0,0,1,0,3.36c-.54,3.24-2.49,5.12-5.81,5.28a5.75,5.75,0,0,1-6.07-5.4c-.19-2.23,0-4.49,0-6.74Z" transform="translate(141.73 141.43)"/><path class="cls-6" d="M153,176.38a6,6,0,1,1-6-5.88A6,6,0,0,1,153,176.38Z" transform="translate(141.73 141.43)"/></svg>